<?xml version="1.0" encoding="UTF-8"?>
<svg version="1.1" xmlns="http://www.w3.org/2000/svg" width="264" height="191">
<path d="M0 0 C5.24537745 -0.46012083 9.56148146 0.29783939 14.62890625 1.5625 C18.0233049 2.18881408 21.30228059 2.05205639 24.73828125 1.875 C27.33137382 2.01831427 28.84514825 2.56180709 31 4 C31.103125 4.804375 31.20625 5.60875 31.3125 6.4375 C31.76771966 9.28731095 31.76771966 9.28731095 34.75 10.75 C40.2526552 12.76953119 46.20763351 12.67859865 52 13 C59.41703638 13.61135759 59.41703638 13.61135759 63 16 C63.185625 16.9590625 63.185625 16.9590625 63.375 17.9375 C63.8376524 20.22001032 63.8376524 20.22001032 66.1875 21.5625 C70.58034319 23.80800733 70.58034319 23.80800733 75 26 C74.67 27.32 74.34 28.64 74 30 C73.37351562 30.13277344 72.74703125 30.26554687 72.1015625 30.40234375 C70.87566406 30.66724609 70.87566406 30.66724609 69.625 30.9375 C68.40683594 31.19853516 68.40683594 31.19853516 67.1640625 31.46484375 C64.970537 31.92330693 64.970537 31.92330693 63 33 C62.27840576 34.64363134 61.60648579 36.31050386 61 38 C55.20798218 39.3002489 52.30002435 38.50546606 47 36 C38.97387653 34.12154557 31.84427375 34.97995206 24 37 C22.66666667 37.33333333 21.33333333 37.66666667 20 38 C20.33 38.99 20.66 39.98 21 41 C21 42.32 21 43.64 21 45 C22.67639637 48.07339334 23.90010205 48.95404694 27.125 50.4375 C30 52 30 52 30.875 54.6875 C30.91625 55.450625 30.9575 56.21375 31 57 C27.93954291 59.04030473 27.15341002 59.21936328 23.6875 59.375 C19.16502601 59.82503412 16.34692375 60.73674934 13 64 C11.99330033 66.71865787 11.72489799 69.11716017 12 72 C13.31673833 74.83658587 13.31673833 74.83658587 15 77 C15 77.66 15 78.32 15 79 C15.928125 79.268125 16.85625 79.53625 17.8125 79.8125 C20.79513615 80.92367817 22.11865457 81.52454549 24 84 C25 87 25 87 24.3359375 89.11328125 C23 91 23 91 20.9765625 91.79296875 C20.20054687 91.92316406 19.42453125 92.05335937 18.625 92.1875 C17.85414063 92.32542969 17.08328125 92.46335937 16.2890625 92.60546875 C15.53367188 92.73566406 14.77828125 92.86585937 14 93 C9.55731288 93.90031728 6.2272469 95.80535155 3 99 C1.53977565 102.52451159 1.53977565 102.52451159 1 106 C0.67 106.99 0.34 107.98 0 109 C0.75569135 111.22391418 0.75569135 111.22391418 1.9375 113.5 C3.34909262 116.37103583 4 117.74974033 4 121 C4.721875 121.061875 5.44375 121.12375 6.1875 121.1875 C10.01258882 122.29252566 11.5569076 123.87827082 14 127 C15.0625 130.5 15.0625 130.5 15 134 C13.23358828 136.80189446 11.96950178 138.51524911 9 140 C7.33333333 140 5.66666667 140 4 140 C-2.48971072 140.47026889 -5.58725782 143.53669162 -10.00390625 148.06640625 C-12 150 -12 150 -14 150 C-13.91298828 150.87011719 -13.91298828 150.87011719 -13.82421875 151.7578125 C-13.58078942 155.97261742 -13.48422351 159.03306117 -16.1875 162.4375 C-19.54994127 165.5010576 -21.51808905 166.92632546 -26.10546875 167.0625 C-31.98881183 166.74714493 -34.98808236 165.30547259 -39 161 C-39.21011719 160.17757812 -39.42023438 159.35515625 -39.63671875 158.5078125 C-41.21512073 155.60427649 -41.7692723 155.43323464 -44.7734375 154.3828125 C-46.30137548 153.94246926 -47.8357182 153.52388366 -49.375 153.125 C-50.14328125 152.90070313 -50.9115625 152.67640625 -51.703125 152.4453125 C-56.61749584 151.08493303 -59.49546815 150.7835131 -64.1875 153.0625 C-66.99926264 153.99975421 -68.2545181 153.95653931 -71.12109375 153.71875 C-76.88600378 153.66807331 -80.35037471 156.10462869 -84.875 159.4375 C-85.62007813 159.93443359 -86.36515625 160.43136719 -87.1328125 160.94335938 C-91.93398206 164.37585021 -94.01982519 167.21875837 -95.39746094 172.98120117 C-96.63952406 177.14271654 -100.02494792 179.28154057 -103.375 181.75 C-108.17073985 184.03368564 -111.6474155 184.40577535 -116.75 182.875 C-120.24942736 180.8560996 -121.49839377 179.70985069 -123 176 C-123.04153158 174.33385088 -123.04736102 172.66599361 -123 171 C-124.06927734 170.70996094 -124.06927734 170.70996094 -125.16015625 170.4140625 C-126.11792969 170.15367187 -127.07570312 169.89328125 -128.0625 169.625 C-129.06925781 169.356875 -130.07601562 169.08875 -131.11328125 168.8125 C-134 168 -134 168 -137.75 166.625 C-142.04098466 165.79981064 -144.07727077 167.21068491 -148 169 C-151.5853578 169.478497 -154.89838537 169.3478783 -158.375 168.25 C-160.51445694 166.60426389 -161.22475347 165.60764742 -162 163 C-162 156.48887325 -159.36018762 153.38061005 -155 149 C-153.96552734 148.13181641 -153.96552734 148.13181641 -152.91015625 147.24609375 C-150.34775692 144.23304751 -149.9654243 141.61329123 -149.25 137.75 C-149.00765625 136.48671875 -148.7653125 135.2234375 -148.515625 133.921875 C-148.26039063 132.47554688 -148.26039063 132.47554688 -148 131 C-148.639375 130.690625 -149.27875 130.38125 -149.9375 130.0625 C-152 129 -152 129 -153 128 C-153.04063832 126.33382885 -153.042721 124.66611905 -153 123 C-159.71277015 121.04899784 -165.03350028 119.58089821 -172 121 C-173.74813093 121.10219842 -175.49906604 121.1622704 -177.25 121.1875 C-178.08015625 121.20167969 -178.9103125 121.21585937 -179.765625 121.23046875 C-182 121 -182 121 -185 119 C-185.6875 116.3125 -185.6875 116.3125 -185 113 C-182.6100757 110.29575459 -179.98582547 108.02652412 -177 106 C-176.34 106 -175.68 106 -175 106 C-173.515 100.555 -173.515 100.555 -172 95 C-173.32 93.68 -174.64 92.36 -176 91 C-174.94507239 87.20226059 -173.4845786 84.91435841 -170.08203125 82.828125 C-167.36706366 81.74825046 -164.77137156 81.43712051 -161.875 81.0625 C-152.48719189 79.83660066 -144.89675706 77.58499017 -139 70 C-135.99432707 67.99014598 -133.5209021 67.70371449 -129.9375 67.6875 C-128.65166016 67.66236328 -128.65166016 67.66236328 -127.33984375 67.63671875 C-124.55443374 68.06917807 -123.66187493 68.76055542 -122 71 C-122 71.66 -122 72.32 -122 73 C-112.97692839 74.07784956 -112.97692839 74.07784956 -104 73.375 C-100.15979033 72.89497379 -98.24694636 74.02015466 -95 76 C-94.63374029 80.51720311 -94.63374029 80.51720311 -96.375 82.8125 C-98 84 -98 84 -100 84 C-100 87.96 -100 91.92 -100 96 C-98.02 96.495 -98.02 96.495 -96 97 C-94.75 99.5625 -94.75 99.5625 -94 102 C-92.10047995 102.23744001 -90.20086695 102.47416107 -88.30078125 102.70703125 C-86.79630654 102.89860273 -85.29348678 103.10378867 -83.79296875 103.32421875 C-80.44056258 103.80313392 -78.2589022 104.08630073 -75 103 C-73.0509375 103.185625 -73.0509375 103.185625 -71.0625 103.375 C-64.41921071 103.45135965 -59.0825455 100.02562473 -54 96 C-52.27736484 93.56195351 -51.71887664 91.93541296 -51 89 C-50.34 89 -49.68 89 -49 89 C-49.33 85.7 -49.66 82.4 -50 79 C-50.969375 78.7525 -51.93875 78.505 -52.9375 78.25 C-53.948125 77.8375 -54.95875 77.425 -56 77 C-56.875 74.875 -56.875 74.875 -57 73 C-58.19625 72.855625 -59.3925 72.71125 -60.625 72.5625 C-63.21896893 72.24571441 -65.7408662 71.86021393 -68.3125 71.375 C-71.09294139 70.78414836 -71.09294139 70.78414836 -74 72 C-81.23444976 72.45933014 -81.23444976 72.45933014 -84.5 70.5 C-84.995 70.005 -85.49 69.51 -86 69 C-85.6875 66.625 -85.6875 66.625 -85 64 C-84.01 63.34 -83.02 62.68 -82 62 C-81.24862832 59.1292764 -81.24862832 59.1292764 -82 56 C-85.48509759 52.35280484 -88.054015 50.64179213 -93 50 C-96.87168852 49.9711068 -100.7310917 50.0651054 -104.6015625 50.16015625 C-108 50 -108 50 -111 48 C-110.75 46.125 -110.75 46.125 -110 44 C-107.9375 42.75 -107.9375 42.75 -106 42 C-106 40.02 -106 38.04 -106 36 C-107.98 35.505 -107.98 35.505 -110 35 C-109.6875 33.125 -109.6875 33.125 -109 31 C-105.76056517 28.84037678 -103.9248746 28.5306558 -100.125 28 C-95.36349288 27.3317183 -91.08772507 26.58379143 -87.1875 23.625 C-85.60665561 21.7971818 -85.60665561 21.7971818 -86 18 C-86.99 17.34 -87.98 16.68 -89 16 C-88.67 15.01 -88.34 14.02 -88 13 C-85.35318212 12.19470418 -82.82466794 11.55401881 -80.125 11 C-73.90163947 9.79018939 -73.90163947 9.79018939 -69 6 C-64.95574298 5.28358876 -61.0395564 5.63037995 -57.1875 7 C-50.56593626 9.07735333 -42.30442763 9.07138782 -36 6 C-35.55011719 5.48566406 -35.10023438 4.97132812 -34.63671875 4.44140625 C-32.47160306 2.53465759 -31.21668999 2.65743681 -28.375 2.75 C-27.57835937 2.76546875 -26.78171875 2.7809375 -25.9609375 2.796875 C-24 3 -24 3 -23 4 C-16.01253603 5.42337229 -8.78754832 5.30965186 -2 3 C-1.34 2.01 -0.68 1.02 0 0 Z " fill="#090B0B" transform="translate(187,2)"/>
<path d="M0 0 C3.99007791 1.72712629 5.20081678 3.67705833 7.01171875 7.5078125 C8.41505838 10.0583266 10.34873798 10.34088542 12.99609375 11.296875 C13.80859375 13.359375 13.80859375 13.359375 13.99609375 16.296875 C14.06957031 17.01875 14.14304687 17.740625 14.21875 18.484375 C14.37109254 20.85935615 14.40193913 22.95002999 13.99609375 25.296875 C11.62109375 27.609375 11.62109375 27.609375 8.99609375 29.296875 C7.37520806 31.77085842 6.93017742 33.64635594 6.375 36.58984375 C4.59530718 41.37434372 2.25631696 43.03444483 -1.87890625 45.796875 C-2.50410156 46.250625 -3.12929687 46.704375 -3.7734375 47.171875 C-5.62109375 48.453125 -5.62109375 48.453125 -9.00390625 50.296875 C-10.97705078 49.93164062 -10.97705078 49.93164062 -13.00390625 49.296875 C-17.73071494 48.90943166 -20.56445094 48.74548527 -24.56640625 51.359375 C-28.86791664 53.78386268 -30.27913867 53.55681302 -35.00390625 52.296875 C-38.705802 51.04955153 -42.36317445 49.71234939 -46.00390625 48.296875 C-46.06901042 46.34375 -46.13411458 44.390625 -46.19921875 42.4375 C-47.45100886 39.10749525 -50.031902 38.04696769 -53.00390625 36.296875 C-52.31903959 22.83924521 -52.31903959 22.83924521 -49.1953125 19.17578125 C-47.06640625 17.734375 -47.06640625 17.734375 -44.9765625 16.66796875 C-42.73395982 15.35213524 -42.73395982 15.35213524 -41.625 12.3828125 C-38.65282597 6.72493905 -32.74779331 4.60084757 -27.00390625 2.296875 C-24.06808888 1.76612673 -21.322033 1.55274305 -18.34375 1.484375 C-15.77892702 1.45548309 -15.77892702 1.45548309 -13.12890625 -0.453125 C-8.45046959 -2.32449966 -4.78794652 -1.23910534 0 0 Z " fill="#69BEC4" transform="translate(99.00390625,110.703125)"/>
<path d="M0 0 C4.16271899 1.43542034 5.0008963 2.86405974 7.625 6.25 C9.3575 6.5903125 9.3575 6.5903125 11.125 6.9375 C14.625 8.25 14.625 8.25 16 10.44921875 C18.75339966 16.99810335 18.75339966 16.99810335 18.40625 20.3828125 C17.625 22.25 17.625 22.25 16.02734375 23.74609375 C15.56457031 24.24238281 15.10179687 24.73867187 14.625 25.25 C14.71553087 27.21245696 14.71553087 27.21245696 15.1875 29.3125 C15.37128242 33.15925625 14.72215807 34.14018878 12.10546875 37.09765625 C11.04677285 38.0441136 9.96915821 38.96977277 8.875 39.875 C8.33689697 40.32496338 7.79879395 40.77492676 7.24438477 41.23852539 C3.26316022 44.31186832 3.26316022 44.31186832 0.44921875 44.0390625 C-0.15277344 43.77867187 -0.75476563 43.51828125 -1.375 43.25 C-6.32398156 42.81391908 -6.32398156 42.81391908 -10.6875 44.8125 C-14.95427893 47.09473059 -18.74201663 46.10273752 -23.375 45.25 C-24.70917969 45.01990234 -24.70917969 45.01990234 -26.0703125 44.78515625 C-29.76831233 43.94068763 -32.4807157 43.31701892 -34.97265625 40.34375 C-36.25 38.1875 -36.25 38.1875 -37.2421875 36.08984375 C-38.25126243 34.08006335 -38.25126243 34.08006335 -40.4453125 33.25390625 C-42.375 32.25 -42.375 32.25 -43.109375 30.50390625 C-43.4375442 27.71929407 -43.58329587 24.99210282 -43.625 22.1875 C-43.65078125 21.14464844 -43.6765625 20.10179687 -43.703125 19.02734375 C-43.32698883 15.84361973 -42.69428696 15.29360944 -40.375 13.25 C-40.230625 12.1775 -40.08625 11.105 -39.9375 10 C-38.90441675 5.92843658 -36.32865153 4.48702134 -32.875 2.3125 C-27.81875162 -0.42274762 -24.04302514 -1.43405414 -18.3359375 -0.8984375 C-12.37477035 -0.44719377 -6.42479372 -1.26805139 0 0 Z " fill="#57B3CC" transform="translate(164.375,102.75)"/>
<path d="M0 0 C0.85464844 0.09023437 1.70929688 0.18046875 2.58984375 0.2734375 C4.80715034 0.58869436 6.90451023 1.03418146 9.0625 1.625 C9.124375 2.40875 9.18625 3.1925 9.25 4 C9.518125 4.86625 9.78625 5.7325 10.0625 6.625 C12.56341962 7.81718842 12.56341962 7.81718842 15.0625 8.625 C15.34572167 12.33205692 15.50823064 15.92708654 15.0625 19.625 C12.8125 21.4375 12.8125 21.4375 10.0625 22.625 C9.49660156 23.54925781 8.93070313 24.47351563 8.34765625 25.42578125 C5.57746585 29.30404781 2.91890467 30.87629634 -1.25 33 C-1.88873047 33.35449219 -2.52746094 33.70898438 -3.18554688 34.07421875 C-7.64384286 36.41403366 -10.83350238 36.80556595 -15.9375 36.625 C-18.37733683 37.37914199 -18.37733683 37.37914199 -20.625 38.375 C-26.14262096 40.15487773 -30.16670019 39.11713811 -35.49609375 37.08203125 C-37.9375 35.625 -37.9375 35.625 -39.03515625 33.82421875 C-39.5 31.9375 -39.5 31.9375 -39.9375 28.625 C-40.9275 28.295 -41.9175 27.965 -42.9375 27.625 C-42 18.25 -42 18.25 -39.9375 15.625 C-38.2138036 14.65346203 -36.48599739 13.68099771 -34.69140625 12.84765625 C-32.72754139 11.66404108 -32.72754139 11.66404108 -31.52734375 9.16796875 C-28.68494457 4.62152681 -23.88164122 3.23941346 -18.9375 1.625 C-16.0204055 1.14873967 -13.20149449 0.88574396 -10.25 0.765625 C-6.52364215 0.53902216 -3.82458934 -0.4255934 0 0 Z " fill="#6FC2C0" transform="translate(63.9375,79.375)"/>
<path d="M0 0 C4.55564507 -0.13016129 8.37453781 0.1262453 12.57421875 2.12109375 C13.06921875 3.60609375 13.06921875 3.60609375 13.57421875 5.12109375 C15.55267229 5.85021344 15.55267229 5.85021344 17.88671875 6.30859375 C20.80954 7.16496176 22.20663711 7.63356442 24.05859375 10.08984375 C25.02366139 12.07592497 25.86432918 14.03113915 26.57421875 16.12109375 C25.58421875 16.78109375 24.59421875 17.44109375 23.57421875 18.12109375 C23.69796875 19.19359375 23.82171875 20.26609375 23.94921875 21.37109375 C23.57421875 25.12109375 23.57421875 25.12109375 21.8984375 26.9140625 C17.18232951 30.34321874 13.6144306 31.7148541 7.8125 31.25390625 C5.48942548 31.11606239 3.54746817 31.40498394 1.26171875 31.80859375 C-4.4544244 32.51429044 -10.13315225 31.32238239 -15.42578125 29.12109375 C-17.08203125 27.08203125 -17.08203125 27.08203125 -18.42578125 25.12109375 C-19.45703125 24.72921875 -20.48828125 24.33734375 -21.55078125 23.93359375 C-24.42578125 22.12109375 -24.42578125 22.12109375 -25.03515625 19.93359375 C-25.27770094 17.65082017 -25.41615895 15.41601134 -25.42578125 13.12109375 C-24.43578125 12.79109375 -23.44578125 12.46109375 -22.42578125 12.12109375 C-22.08546875 10.48140625 -22.08546875 10.48140625 -21.73828125 8.80859375 C-20.21655493 4.53326743 -20.21655493 4.53326743 -16.92578125 2.74609375 C-11.40721684 0.41093268 -5.90112234 0.29458099 0 0 Z " fill="#52AFCD" transform="translate(169.42578125,65.87890625)"/>
<path d="M0 0 C0.88171875 0.97839844 0.88171875 0.97839844 1.78125 1.9765625 C2.4825 2.1209375 3.18375 2.2653125 3.90625 2.4140625 C4.834375 2.6925 4.834375 2.6925 5.78125 2.9765625 C7.30289099 5.86768038 7.78125 7.69479662 7.78125 10.9765625 C6.79125 11.6365625 5.80125 12.2965625 4.78125 12.9765625 C4.54921875 13.96076172 4.54921875 13.96076172 4.3125 14.96484375 C3.78125 16.9765625 3.78125 16.9765625 2.25 18.20703125 C-2.3139231 20.42560498 -6.26159603 21.49137018 -11.3359375 21.80078125 C-13.30792068 21.8702586 -13.30792068 21.8702586 -15.21875 22.9765625 C-18.23996539 22.84362902 -21.22226311 22.37441538 -24.21875 21.9765625 C-25.353125 21.8734375 -26.4875 21.7703125 -27.65625 21.6640625 C-28.501875 21.4371875 -29.3475 21.2103125 -30.21875 20.9765625 C-31.28125 19.0390625 -31.28125 19.0390625 -32.21875 16.9765625 C-34.75645003 15.69401606 -34.75645003 15.69401606 -37.21875 14.9765625 C-37.46875 11.6640625 -37.46875 11.6640625 -37.21875 7.9765625 C-35.28125 6.2265625 -35.28125 6.2265625 -33.21875 4.9765625 C-32.88875 3.9865625 -32.55875 2.9965625 -32.21875 1.9765625 C-24.85068758 -3.60238816 -7.17561924 -6.54396261 0 0 Z " fill="#5AB4C9" transform="translate(149.21875,48.0234375)"/>
<path d="M0 0 C1.546875 0.4640625 1.546875 0.4640625 3.125 0.9375 C6.30555862 2.11292384 7.28455941 3.14093235 9 6 C8.67 6.556875 8.34 7.11375 8 7.6875 C6.8690399 10.30284522 6.84337026 12.1806646 7 15 C-0.31869413 20.53364678 -9.19288408 20.54327001 -18.08984375 19.7109375 C-22.60805426 18.9280464 -24.76807212 18.23192788 -28 15 C-28.68320313 14.85175781 -29.36640625 14.70351563 -30.0703125 14.55078125 C-32 14 -32 14 -33.1171875 12.29296875 C-35.16390834 6.60646085 -35.16390834 6.60646085 -34.375 3.6875 C-31.33776381 -0.04001714 -28.65270942 -2.45621821 -23.80859375 -3.44921875 C-15.57530839 -4.27661645 -7.00422465 -5.0030176 0 0 Z " fill="#4EACCE" transform="translate(195,44)"/>
<path d="M0 0 C0.36235628 3.17061742 0.1397724 4.7508405 -1.4375 7.5625 C-9.3729987 15.1109012 -19.59737016 15.05222204 -30 15 C-33.015625 14.51171875 -33.015625 14.51171875 -35 14 C-35.33 13.01 -35.66 12.02 -36 11 C-38.01508358 10.26676204 -38.01508358 10.26676204 -40 10 C-40 7.69 -40 5.38 -40 3 C-39.4225 2.7525 -38.845 2.505 -38.25 2.25 C-35.89511511 1.10357449 -35.89511511 1.10357449 -34.21875 -1 C-25.29882512 -9.04049567 -9.27375951 -4.85768355 0 0 Z " fill="#61B8C5" transform="translate(127,34)"/>
<path d="M0 0 C0 0.66 0 1.32 0 2 C0.94875 2.226875 1.8975 2.45375 2.875 2.6875 C6 4 6 4 7.375 6.625 C7.58125 7.40875 7.7875 8.1925 8 9 C7.34 9.33 6.68 9.66 6 10 C5.7525 10.61875 5.505 11.2375 5.25 11.875 C3.32144276 15.15354731 1.60587423 15.71655324 -2 17 C-11.20820438 18.47815912 -19.10703058 18.44648471 -27.5 14.25 C-30 12 -30 12 -31.25 9.0625 C-31 6 -31 6 -28.8125 3.25 C-20.6383544 -2.58867543 -9.38301084 -1.11990775 0 0 Z " fill="#56B1CA" transform="translate(162,26)"/>
<path d="M0 0 C1.625 2.4375 1.625 2.4375 2 5 C1.33476563 7.86050777 0.84035586 9.43842568 -1.63671875 11.09375 C-9.05499099 13.93844283 -18.82680826 13.94306333 -26.1328125 10.8828125 C-27.05707031 10.44582031 -27.05707031 10.44582031 -28 10 C-29.134375 9.54625 -30.26875 9.0925 -31.4375 8.625 C-34.43595265 6.72354222 -35.08762215 5.37579806 -36 2 C-35.34 1.67 -34.68 1.34 -34 1 C-33.67 0.01 -33.34 -0.98 -33 -2 C-23.69607978 -6.92560482 -8.37016143 -6.67380872 0 0 Z " fill="#4BAACE" transform="translate(208,26)"/>
<path d="M0 0 C0.66 0.66 1.32 1.32 2 2 C3.134375 2.28875 4.26875 2.5775 5.4375 2.875 C9.1419745 4.04483405 10.13501059 4.70884222 12 8 C11.34 8.99 10.68 9.98 10 11 C10.66 11 11.32 11 12 11 C12 11.66 12 12.32 12 13 C7.52566876 16.7717503 2.81614933 16.53840136 -2.75 16.5 C-4.09372681 16.49577026 -4.09372681 16.49577026 -5.46459961 16.49145508 C-13.11542928 16.30341733 -17.98592428 14.60428609 -23.68359375 9.48828125 C-25 8 -25 8 -25.5 5.5 C-25 3 -25 3 -23 1.25 C-15.70546525 -1.78938948 -7.6817573 -1.35908014 0 0 Z " fill="#42A3D3" transform="translate(237,18)"/>
<path d="M0 0 C0 0.66 0 1.32 0 2 C2.97 2.495 2.97 2.495 6 3 C6.495 4.98 6.495 4.98 7 7 C1.23223599 13.0299351 -3.72317553 14.53789442 -12 15 C-22.13836478 14.86163522 -22.13836478 14.86163522 -25 12 C-27.06874034 11.3574765 -27.06874034 11.3574765 -29 11 C-29.375 8.8125 -29.375 8.8125 -29 6 C-22.66535624 -1.56638005 -9.16581537 -2.93306092 0 0 Z " fill="#5BB3C5" transform="translate(136,13)"/>
<path d="M0 0 C1.375 2.1875 1.375 2.1875 2 4 C-3.05432886 9.18733751 -5.64857629 10.21025378 -12.75 10.6875 C-13.80574219 10.77741211 -13.80574219 10.77741211 -14.8828125 10.86914062 C-19.40683972 11.17606812 -22.7247589 10.7405885 -27 9 C-27.763125 8.731875 -28.52625 8.46375 -29.3125 8.1875 C-31 7 -31 7 -31.9375 4.625 C-32 2 -32 2 -30.8828125 -0.08203125 C-24.22709285 -6.86202782 -7.36898264 -4.97406328 0 0 Z " fill="#52AECA" transform="translate(178,13)"/>
<path d="M0 0 C1.010625 0.309375 2.02125 0.61875 3.0625 0.9375 C6 2 6 2 8 5 C7.1875 7.375 7.1875 7.375 5 10 C-3.01549455 12.9249524 -12.64260377 12.68857761 -20.7265625 10.140625 C-23 9 -23 9 -25 6 C-24.75 2.875 -24.75 2.875 -24 0 C-17.78437028 -3.10781486 -5.7226741 -3.81511607 0 0 Z " fill="#4AA8CF" transform="translate(208,8)"/>
<path d="M0 0 C0.79664063 0.01546875 1.59328125 0.0309375 2.4140625 0.046875 C4.375 0.25 4.375 0.25 5.375 1.25 C7.70317964 1.61760731 10.0368385 1.95241581 12.375 2.25 C12.375 2.58 12.375 2.91 12.375 3.25 C5.96972318 4.76989619 -0.36448102 5.80224157 -6.90234375 6.58984375 C-9.95000034 7.00309736 -9.95000034 7.00309736 -11.625 10.25 C-11.79213569 12.87531524 -11.79213569 12.87531524 -11.625 15.25 C-11.00625 15.3325 -10.3875 15.415 -9.75 15.5 C-7.625 16.25 -7.625 16.25 -5.625 20.25 C-10.905 20.91 -16.185 21.57 -21.625 22.25 C-18.625 16.25 -18.625 16.25 -16.625 14.25 C-16.625 13.26 -16.625 12.27 -16.625 11.25 C-19.595 10.755 -19.595 10.755 -22.625 10.25 C-22.625 9.59 -22.625 8.93 -22.625 8.25 C-30.35272107 8.11309156 -37.93381404 8.49833087 -45.625 9.25 C-45.955 8.59 -46.285 7.93 -46.625 7.25 C-45.820625 6.775625 -45.01625 6.30125 -44.1875 5.8125 C-41.77746512 4.48099846 -41.77746512 4.48099846 -40.625 3.25 C-36.51696382 2.87811462 -32.71346632 2.86298975 -28.8125 4.25 C-22.19093626 6.32735333 -13.92942763 6.32138782 -7.625 3.25 C-7.17511719 2.73566406 -6.72523438 2.22132812 -6.26171875 1.69140625 C-4.09660306 -0.21534241 -2.84168999 -0.09256319 0 0 Z " fill="#0C1113" transform="translate(158.625,4.75)"/>
<path d="M0 0 C0.12375 0.639375 0.2475 1.27875 0.375 1.9375 C0.8376524 4.22001032 0.8376524 4.22001032 3.1875 5.5625 C7.58034319 7.80800733 7.58034319 7.80800733 12 10 C11.67 11.32 11.34 12.64 11 14 C10.37351562 14.13277344 9.74703125 14.26554687 9.1015625 14.40234375 C8.28429687 14.57894531 7.46703125 14.75554688 6.625 14.9375 C5.81289062 15.11152344 5.00078125 15.28554688 4.1640625 15.46484375 C1.970537 15.92330693 1.970537 15.92330693 0 17 C-0.72159424 18.64363134 -1.39351421 20.31050386 -2 22 C-7.79201782 23.3002489 -10.69997565 22.50546606 -16 20 C-17.98821313 19.60235737 -19.98732362 19.24544834 -22 19 C-20.25050491 16.81313113 -19.34795414 16.06260958 -16.546875 15.55859375 C-15.62390625 15.51863281 -14.7009375 15.47867188 -13.75 15.4375 C-9.18942741 15.14678621 -5.32561611 14.44187204 -1 13 C-1 12.34 -1 11.68 -1 11 C-1.66 11 -2.32 11 -3 11 C-2.773125 10.401875 -2.54625 9.80375 -2.3125 9.1875 C-1.76200991 6.9988419 -1.76200991 6.9988419 -3 5.375 C-5.12651004 3.75250827 -5.12651004 3.75250827 -8.625 3 C-9.73875 2.67 -10.8525 2.34 -12 2 C-12.33 1.01 -12.66 0.02 -13 -1 C-13.99 -1.33 -14.98 -1.66 -16 -2 C-10.38362811 -3.57960459 -4.91201114 -3.27467409 0 0 Z " fill="#181A1B" transform="translate(250,18)"/>
<path d="M0 0 C3.9848063 0.03783044 7.06718347 0.77260265 10.8125 2.1875 C12.80619031 2.55670191 14.80529077 2.90075582 16.8125 3.1875 C13.80025782 4.93323127 11.77554624 5.39429359 8.3125 5.25 C2.43277492 5.11836436 -3.33873819 5.62473254 -9.1875 6.1875 C-9.5175 5.5275 -9.8475 4.8675 -10.1875 4.1875 C-9.383125 3.713125 -8.57875 3.23875 -7.75 2.75 C-3.28512228 0.02751359 -3.28512228 0.02751359 0 0 Z " fill="#1B1C1D" transform="translate(122.1875,7.8125)"/>
<path d="M0 0 C5.23998263 -0.4596476 9.54975397 0.29985177 14.61328125 1.5546875 C18.72477286 2.32180705 22.83522007 2.1565053 27 2 C27 2.33 27 2.66 27 3 C26.05125 3.12375 25.1025 3.2475 24.125 3.375 C20.91332809 3.71687177 20.91332809 3.71687177 19 6 C18.67 5.67 18.34 5.34 18 5 C16.58429877 4.91348389 15.164405 4.89295096 13.74609375 4.90234375 C12.46508789 4.90717773 12.46508789 4.90717773 11.15820312 4.91210938 C9.81145508 4.92467773 9.81145508 4.92467773 8.4375 4.9375 C7.53580078 4.94201172 6.63410156 4.94652344 5.70507812 4.95117188 C3.46998686 4.96299775 1.23502563 4.9794778 -1 5 C-1.33 4.34 -1.66 3.68 -2 3 C-1.34 2.01 -0.68 1.02 0 0 Z " fill="#2D3335" transform="translate(187,2)"/>
<path d="M0 0 C1.19496094 0.02320313 1.19496094 0.02320313 2.4140625 0.046875 C4.375 0.25 4.375 0.25 5.375 1.25 C7.70317964 1.61760731 10.0368385 1.95241581 12.375 2.25 C12.375 2.58 12.375 2.91 12.375 3.25 C5.0552723 5.11094772 -2.09283285 5.80761615 -9.625 6.25 C-9.955 5.59 -10.285 4.93 -10.625 4.25 C-9.635 3.92 -8.645 3.59 -7.625 3.25 C-7.16351563 2.73953125 -6.70203125 2.2290625 -6.2265625 1.703125 C-4.09122502 -0.23430316 -2.83710757 -0.09241393 0 0 Z " fill="#272C2D" transform="translate(158.625,4.75)"/>
<path d="M0 0 C3.3 0.33 6.6 0.66 10 1 C5.46780033 3.26609984 3.82227075 2.92735976 -1 2 C-0.67 1.34 -0.34 0.68 0 0 Z " fill="#36393A" transform="translate(129,10)"/>
</svg>
